# xmcd
#
# Track frame offsets:
#	150
#	47240
#	61527
#	107222
#	146250
#	173942
#	196910
#	228047
#	259600
#	280910
#
# Disc length: 3982 seconds
# Revision: 1
# Processed by: cddbd v1.5.2PL0 Copyright (c) Steve Scherf et al.
# Submitted via: dBpowerAMP V12.0
#
DISCID=820f8c0a
DTITLE=Various Artist - CD Classics 3 ~ Classic Jazz [dBP-LITE-1-FLAC@]
DYEAR=1990
DGENRE=Jazz
TTITLE0=George Gershwin - Cuban Oveture
TTITLE1=Darium Milhaud - La Creation de Monde 2nd Tableau
TTITLE2=Claude Debussy - Premier Rapsodie
TTITLE3=Dmitry Shostakovich - Suite No 1 for Jazz Band op 38
TTITLE4=Thelonious Monk - 'Round Midnight
TTITLE5=Maurice Ravel - Sonata for violin and piano - blues
TTITLE6=Duke Ellington - Ron Collier Orch - The River IV Lake
TTITLE7=Bela Bartok - Contrasts III Sebes
TTITLE8=Igor Stravinsky - Ragtime for 11 instruments
TTITLE9=Maurice Ravel - Piano Concerto in G Presto
EXTD=
EXTT0=
EXTT1=
EXTT2=
EXTT3=
EXTT4=
EXTT5=
EXTT6=
EXTT7=
EXTT8=
EXTT9=
PLAYORDER=
